<svg xmlns="http://www.w3.org/2000/svg" width="600" height="500" viewBox="0 0 600 500">
  <rect width="600" height="500" fill="#0d0c0b"/>

  <!-- Phone shell -->
  <rect x="175" y="20" width="250" height="460" rx="36" fill="#1c1b1a" stroke="#2e2c2a" stroke-width="2"/>
  <rect x="185" y="30" width="230" height="440" rx="28" fill="#0d0c0b"/>

  <!-- Status bar -->
  <rect x="185" y="30" width="230" height="32" rx="28" fill="#0d0c0b"/>
  <rect x="185" y="50" width="230" height="12" fill="#0d0c0b"/>
  <text x="202" y="50" fill="#e5e5e0" font-size="10" font-weight="600" font-family="system-ui">9:41</text>
  <rect x="370" y="40" width="14" height="7" rx="2" fill="none" stroke="#e5e5e0" stroke-width="1.2"/>
  <rect x="371" y="41" width="10" height="5" rx="1" fill="#e5e5e0"/>

  <!-- Balance card -->
  <rect x="185" y="62" width="230" height="90" fill="#1f1408"/>
  <text x="200" y="82" fill="rgba(245,158,11,.65)" font-size="8" font-family="system-ui" letter-spacing="0.8">SALDO TOTAL · MAIO</text>
  <text x="200" y="108" fill="#e5e5e0" font-size="26" font-weight="800" font-family="system-ui">R$ 4.836,70</text>
  <text x="200" y="128" fill="#22c55e" font-size="11" font-weight="600" font-family="system-ui">↑ R$ 5.200,00</text>
  <text x="300" y="128" fill="#ef4444" font-size="11" font-weight="600" font-family="system-ui">↓ R$ 363,30</text>

  <!-- Transactions header -->
  <text x="200" y="170" fill="#6b6965" font-size="8" font-family="system-ui" letter-spacing="0.8">TRANSAÇÕES RECENTES</text>

  <!-- Transactions -->
  <rect x="200" y="178" width="28" height="28" rx="8" fill="#1a1917"/>
  <text x="214" y="197" text-anchor="middle" font-size="14">🛒</text>
  <text x="238" y="191" fill="#e5e5e0" font-size="11" font-weight="500" font-family="system-ui">Mercado Extra</text>
  <text x="238" y="204" fill="#6b6965" font-size="9" font-family="system-ui">hoje</text>
  <text x="385" y="193" text-anchor="end" fill="#e5e5e0" font-size="11" font-weight="600" font-family="system-ui">−R$ 180,50</text>

  <rect x="200" y="215" width="28" height="28" rx="8" fill="#1a1917"/>
  <text x="214" y="234" text-anchor="middle" font-size="14">💡</text>
  <text x="238" y="228" fill="#e5e5e0" font-size="11" font-weight="500" font-family="system-ui">Conta de luz</text>
  <text x="238" y="241" fill="#6b6965" font-size="9" font-family="system-ui">ontem</text>
  <text x="385" y="230" text-anchor="end" fill="#e5e5e0" font-size="11" font-weight="600" font-family="system-ui">−R$ 95,00</text>

  <rect x="200" y="252" width="28" height="28" rx="8" fill="#1a1917"/>
  <text x="214" y="271" text-anchor="middle" font-size="14">💰</text>
  <text x="238" y="265" fill="#e5e5e0" font-size="11" font-weight="500" font-family="system-ui">Salário</text>
  <text x="238" y="278" fill="#6b6965" font-size="9" font-family="system-ui">01/05</text>
  <text x="385" y="267" text-anchor="end" fill="#22c55e" font-size="11" font-weight="600" font-family="system-ui">+R$ 5.200,00</text>

  <rect x="200" y="289" width="28" height="28" rx="8" fill="#1a1917"/>
  <text x="214" y="308" text-anchor="middle" font-size="14">🍕</text>
  <text x="238" y="302" fill="#e5e5e0" font-size="11" font-weight="500" font-family="system-ui">iFood</text>
  <text x="238" y="315" fill="#6b6965" font-size="9" font-family="system-ui">30/04</text>
  <text x="385" y="304" text-anchor="end" fill="#e5e5e0" font-size="11" font-weight="600" font-family="system-ui">−R$ 42,90</text>

  <rect x="200" y="326" width="28" height="28" rx="8" fill="#1a1917"/>
  <text x="214" y="345" text-anchor="middle" font-size="14">🚗</text>
  <text x="238" y="339" fill="#e5e5e0" font-size="11" font-weight="500" font-family="system-ui">Uber</text>
  <text x="238" y="352" fill="#6b6965" font-size="9" font-family="system-ui">29/04</text>
  <text x="385" y="341" text-anchor="end" fill="#e5e5e0" font-size="11" font-weight="600" font-family="system-ui">−R$ 23,00</text>

  <!-- FAB -->
  <circle cx="375" cy="435" r="22" fill="#f59e0b"/>
  <text x="375" y="443" text-anchor="middle" fill="#0a0908" font-size="22" font-weight="700" font-family="system-ui">+</text>

  <!-- Home indicator -->
  <rect x="265" y="458" width="70" height="3" rx="2" fill="#3a3a3a"/>
</svg>
