<svg xmlns="http://www.w3.org/2000/svg" width="800" height="500" viewBox="0 0 800 500">
  <rect width="800" height="500" fill="#0d0c0b"/>
  <!-- Sidebar -->
  <rect width="172" height="500" fill="#111010"/>
  <rect x="172" y="0" width="1" height="500" fill="#1e1d1b"/>
  <!-- Logo -->
  <rect x="16" y="18" width="30" height="30" rx="7" fill="#6366f1"/>
  <text x="31" y="38" text-anchor="middle" fill="white" font-size="13" font-weight="700" font-family="system-ui">Q</text>
  <text x="56" y="38" fill="#e5e5e0" font-size="13" font-weight="600" font-family="system-ui">Qualyra</text>
  <!-- Nav items -->
  <rect x="12" y="66" width="148" height="30" rx="6" fill="#1e1d1b"/>
  <text x="32" y="85" fill="#e5e5e0" font-size="12" font-family="system-ui">Dashboard</text>
  <text x="32" y="117" fill="#6b6965" font-size="12" font-family="system-ui">Não-conformidades</text>
  <text x="32" y="147" fill="#6b6965" font-size="12" font-family="system-ui">Usuários</text>
  <text x="32" y="177" fill="#6b6965" font-size="12" font-family="system-ui">Relatórios</text>
  <text x="32" y="207" fill="#6b6965" font-size="12" font-family="system-ui">Configurações</text>
  <!-- User -->
  <rect x="12" y="454" width="148" height="32" rx="6" fill="#1a1917"/>
  <rect x="20" y="461" width="18" height="18" rx="9" fill="#6366f1"/>
  <text x="48" y="474" fill="#e5e5e0" font-size="11" font-family="system-ui">Guilherme U.</text>

  <!-- Main area -->
  <text x="196" y="36" fill="#e5e5e0" font-size="16" font-weight="600" font-family="system-ui">Dashboard</text>
  <text x="196" y="54" fill="#6b6965" font-size="11" font-family="system-ui">Visão geral · maio 2026</text>

  <!-- Stat cards -->
  <rect x="196" y="68" width="136" height="68" rx="8" fill="#141312" stroke="#1e1d1b" stroke-width="1"/>
  <text x="212" y="90" fill="#6b6965" font-size="9" font-family="system-ui" letter-spacing="0.8">ABERTAS</text>
  <text x="212" y="120" fill="#ef4444" font-size="26" font-weight="700" font-family="system-ui">12</text>

  <rect x="344" y="68" width="136" height="68" rx="8" fill="#141312" stroke="#1e1d1b" stroke-width="1"/>
  <text x="360" y="90" fill="#6b6965" font-size="9" font-family="system-ui" letter-spacing="0.8">EM ANDAMENTO</text>
  <text x="360" y="120" fill="#f59e0b" font-size="26" font-weight="700" font-family="system-ui">7</text>

  <rect x="492" y="68" width="136" height="68" rx="8" fill="#141312" stroke="#1e1d1b" stroke-width="1"/>
  <text x="508" y="90" fill="#6b6965" font-size="9" font-family="system-ui" letter-spacing="0.8">RESOLVIDAS</text>
  <text x="508" y="120" fill="#22c55e" font-size="26" font-weight="700" font-family="system-ui">34</text>

  <rect x="640" y="68" width="136" height="68" rx="8" fill="#141312" stroke="#1e1d1b" stroke-width="1"/>
  <text x="656" y="90" fill="#6b6965" font-size="9" font-family="system-ui" letter-spacing="0.8">FECHADAS</text>
  <text x="656" y="120" fill="#a8a6a0" font-size="26" font-weight="700" font-family="system-ui">89</text>

  <!-- Table -->
  <rect x="196" y="154" width="580" height="330" rx="10" fill="#141312" stroke="#1e1d1b" stroke-width="1"/>
  <!-- Table header -->
  <rect x="196" y="154" width="580" height="38" rx="10" fill="#1a1917"/>
  <rect x="196" y="178" width="580" height="14" fill="#1a1917"/>
  <text x="216" y="178" fill="#6b6965" font-size="9" font-family="system-ui" letter-spacing="0.8">TÍTULO</text>
  <text x="430" y="178" fill="#6b6965" font-size="9" font-family="system-ui" letter-spacing="0.8">STATUS</text>
  <text x="556" y="178" fill="#6b6965" font-size="9" font-family="system-ui" letter-spacing="0.8">RESPONSÁVEL</text>
  <text x="700" y="178" fill="#6b6965" font-size="9" font-family="system-ui" letter-spacing="0.8">DATA</text>

  <!-- Rows -->
  <rect x="196" y="192" width="580" height="1" fill="#1e1d1b"/>
  <text x="216" y="212" fill="#e5e5e0" font-size="12" font-family="system-ui">Falha no processo de esterilização</text>
  <rect x="430" y="200" width="68" height="18" rx="4" fill="rgba(239,68,68,0.12)"/>
  <text x="464" y="212" text-anchor="middle" fill="#ef4444" font-size="10" font-family="system-ui">ABERTO</text>
  <text x="556" y="212" fill="#a8a6a0" font-size="11" font-family="system-ui">Ana Lima</text>
  <text x="700" y="212" fill="#6b6965" font-size="11" font-family="system-ui">05/05</text>

  <rect x="196" y="224" width="580" height="1" fill="#1e1d1b"/>
  <text x="216" y="244" fill="#e5e5e0" font-size="12" font-family="system-ui">Desvio de temperatura — câmara fria</text>
  <rect x="430" y="232" width="92" height="18" rx="4" fill="rgba(245,158,11,0.12)"/>
  <text x="476" y="244" text-anchor="middle" fill="#f59e0b" font-size="10" font-family="system-ui">EM ANDAMENTO</text>
  <text x="556" y="244" fill="#a8a6a0" font-size="11" font-family="system-ui">Carlos M.</text>
  <text x="700" y="244" fill="#6b6965" font-size="11" font-family="system-ui">04/05</text>

  <rect x="196" y="256" width="580" height="1" fill="#1e1d1b"/>
  <text x="216" y="276" fill="#e5e5e0" font-size="12" font-family="system-ui">NC em lote #4521 — fornecedor B</text>
  <rect x="430" y="264" width="76" height="18" rx="4" fill="rgba(34,197,94,0.12)"/>
  <text x="468" y="276" text-anchor="middle" fill="#22c55e" font-size="10" font-family="system-ui">RESOLVIDO</text>
  <text x="556" y="276" fill="#a8a6a0" font-size="11" font-family="system-ui">Pedro S.</text>
  <text x="700" y="276" fill="#6b6965" font-size="11" font-family="system-ui">03/05</text>

  <rect x="196" y="288" width="580" height="1" fill="#1e1d1b"/>
  <text x="216" y="308" fill="#e5e5e0" font-size="12" font-family="system-ui">Documentação incompleta — auditoria Q3</text>
  <rect x="430" y="296" width="68" height="18" rx="4" fill="rgba(239,68,68,0.12)"/>
  <text x="464" y="308" text-anchor="middle" fill="#ef4444" font-size="10" font-family="system-ui">ABERTO</text>
  <text x="556" y="308" fill="#a8a6a0" font-size="11" font-family="system-ui">Maria J.</text>
  <text x="700" y="308" fill="#6b6965" font-size="11" font-family="system-ui">02/05</text>

  <rect x="196" y="320" width="580" height="1" fill="#1e1d1b"/>
  <text x="216" y="340" fill="#a8a6a0" font-size="12" font-family="system-ui">Calibração vencida — equipamento #3</text>
  <rect x="430" y="328" width="92" height="18" rx="4" fill="rgba(245,158,11,0.12)"/>
  <text x="476" y="340" text-anchor="middle" fill="#f59e0b" font-size="10" font-family="system-ui">EM ANDAMENTO</text>
  <text x="556" y="340" fill="#a8a6a0" font-size="11" font-family="system-ui">Ana Lima</text>
  <text x="700" y="340" fill="#6b6965" font-size="11" font-family="system-ui">01/05</text>

  <rect x="196" y="352" width="580" height="1" fill="#1e1d1b"/>
  <text x="216" y="372" fill="#6b6965" font-size="12" font-family="system-ui">Reclamação cliente — produto devolvido</text>
  <rect x="430" y="360" width="60" height="18" rx="4" fill="rgba(107,105,101,0.15)"/>
  <text x="460" y="372" text-anchor="middle" fill="#6b6965" font-size="10" font-family="system-ui">FECHADO</text>
  <text x="556" y="372" fill="#6b6965" font-size="11" font-family="system-ui">Carlos M.</text>
  <text x="700" y="372" fill="#6b6965" font-size="11" font-family="system-ui">28/04</text>

  <rect x="196" y="384" width="580" height="1" fill="#1e1d1b"/>
  <text x="216" y="404" fill="#6b6965" font-size="12" font-family="system-ui">Embalagem incorreta — linha 2</text>
  <rect x="430" y="392" width="76" height="18" rx="4" fill="rgba(34,197,94,0.12)"/>
  <text x="468" y="404" text-anchor="middle" fill="#22c55e" font-size="10" font-family="system-ui">RESOLVIDO</text>
  <text x="556" y="404" fill="#6b6965" font-size="11" font-family="system-ui">Pedro S.</text>
  <text x="700" y="404" fill="#6b6965" font-size="11" font-family="system-ui">27/04</text>
</svg>
