<svg xmlns="http://www.w3.org/2000/svg" width="800" height="500" viewBox="0 0 800 500">
  <rect width="800" height="500" fill="#0d0c0b"/>

  <!-- Top bar -->
  <rect width="800" height="52" fill="#111010"/>
  <rect y="52" width="800" height="1" fill="#1e1d1b"/>
  <!-- Green status dot -->
  <circle cx="28" cy="26" r="7" fill="#1a2e1a"/>
  <circle cx="28" cy="26" r="4" fill="#25d366"/>
  <text x="44" y="31" fill="#e5e5e0" font-size="15" font-weight="700" font-family="system-ui">Agente de Locação IA</text>
  <text x="238" y="31" fill="#6b6965" font-size="13" font-family="system-ui">— white-label · WhatsApp</text>
  <rect x="620" y="14" width="156" height="26" rx="6" fill="#1a2e1a" stroke="#1e4a1e" stroke-width="1"/>
  <circle cx="636" cy="27" r="4" fill="#25d366"/>
  <text x="648" y="31" fill="#25d366" font-size="11" font-family="system-ui">WhatsApp conectado</text>

  <!-- LEFT PANEL: WhatsApp chat -->
  <rect x="0" y="53" width="340" height="447" fill="#0f0e0d"/>
  <rect x="340" y="53" width="1" height="447" fill="#1e1d1b"/>

  <!-- Chat header -->
  <rect x="0" y="53" width="340" height="48" fill="#111010"/>
  <rect x="0" y="101" width="340" height="1" fill="#1e1d1b"/>
  <circle cx="28" cy="77" r="14" fill="#1a2e1a" stroke="#25d366" stroke-width="1.5"/>
  <text x="28" y="83" text-anchor="middle" font-size="14">🏗️</text>
  <text x="52" y="73" fill="#e5e5e0" font-size="13" font-weight="600" font-family="system-ui">Sua Locadora</text>
  <circle cx="54" cy="84" r="3" fill="#25d366"/>
  <text x="62" y="87" fill="#6b6965" font-size="10" font-family="system-ui">online</text>

  <!-- User message 1 -->
  <rect x="160" y="114" width="168" height="36" rx="10" fill="#1a2e1a" stroke="#1e4a1e" stroke-width="1"/>
  <polygon points="325,130 340,126 325,122" fill="#1a2e1a"/>
  <text x="174" y="129" fill="#e5e5e0" font-size="11" font-family="system-ui">Oi, preciso alugar um</text>
  <text x="174" y="143" fill="#e5e5e0" font-size="11" font-family="system-ui">compactador de solo</text>
  <text x="310" y="143" fill="#6b6965" font-size="9" font-family="system-ui">09:14</text>

  <!-- Bot message 1 -->
  <rect x="12" y="160" width="240" height="60" rx="10" fill="#181715" stroke="#2a2826" stroke-width="1"/>
  <polygon points="15,176 0,172 15,168" fill="#181715"/>
  <text x="26" y="176" fill="#e5e5e0" font-size="11" font-family="system-ui">Olá! 👷 Temos o Compactador</text>
  <text x="26" y="191" fill="#e5e5e0" font-size="11" font-family="system-ui">de Solo disponível:</text>
  <text x="26" y="206" fill="#25d366" font-size="11" font-weight="600" font-family="system-ui">R$ 180/dia · R$ 700/sem · R$ 2.200/mês</text>
  <text x="220" y="214" fill="#6b6965" font-size="9" font-family="system-ui">09:14</text>

  <!-- User message 2 -->
  <rect x="196" y="232" width="132" height="24" rx="10" fill="#1a2e1a" stroke="#1e4a1e" stroke-width="1"/>
  <polygon points="325,244 340,240 325,236" fill="#1a2e1a"/>
  <text x="210" y="248" fill="#e5e5e0" font-size="11" font-family="system-ui">Quero por 10 dias</text>
  <text x="310" y="248" fill="#6b6965" font-size="9" font-family="system-ui">09:15</text>

  <!-- Bot message 2 (calculation) -->
  <rect x="12" y="266" width="220" height="72" rx="10" fill="#181715" stroke="#2a2826" stroke-width="1"/>
  <polygon points="15,282 0,278 15,274" fill="#181715"/>
  <text x="26" y="282" fill="#e5e5e0" font-size="11" font-family="system-ui">Calculando orçamento... 🧮</text>
  <rect x="22" y="290" width="200" height="1" fill="#2a2826"/>
  <text x="26" y="305" fill="#a8a6a0" font-size="10" font-family="system-ui">10 dias × R$ 180/dia</text>
  <text x="26" y="320" fill="#f59e0b" font-size="13" font-weight="700" font-family="system-ui">Total: R$ 1.800,00</text>
  <text x="210" y="332" fill="#6b6965" font-size="9" font-family="system-ui">09:15</text>

  <!-- Bot message 3 (confirmation prompt) -->
  <rect x="12" y="348" width="270" height="48" rx="10" fill="#181715" stroke="#2a2826" stroke-width="1"/>
  <polygon points="15,364 0,360 15,356" fill="#181715"/>
  <text x="26" y="364" fill="#e5e5e0" font-size="11" font-family="system-ui">Para confirmar, preciso de:</text>
  <text x="26" y="379" fill="#a8a6a0" font-size="10.5" font-family="system-ui">Nome · CPF/CNPJ · Endereço · Data início</text>
  <text x="260" y="390" fill="#6b6965" font-size="9" font-family="system-ui">09:15</text>

  <!-- Typing indicator -->
  <rect x="12" y="408" width="72" height="26" rx="13" fill="#181715" stroke="#2a2826" stroke-width="1"/>
  <circle cx="32" cy="421" r="4" fill="#6b6965"/>
  <circle cx="46" cy="421" r="4" fill="#a8a6a0"/>
  <circle cx="60" cy="421" r="4" fill="#e5e5e0"/>

  <!-- Input bar -->
  <rect x="0" y="440" width="340" height="60" fill="#111010"/>
  <rect x="0" y="440" width="340" height="1" fill="#1e1d1b"/>
  <rect x="12" y="452" width="282" height="36" rx="18" fill="#1a1917" stroke="#2a2826" stroke-width="1"/>
  <text x="32" y="474" fill="#6b6965" font-size="12" font-family="system-ui">Mensagem</text>
  <circle cx="322" cy="470" r="16" fill="#25d366"/>
  <text x="322" y="476" text-anchor="middle" fill="#0a0a0a" font-size="16" font-weight="700" font-family="system-ui">↑</text>

  <!-- RIGHT PANEL: Admin dashboard -->
  <text x="360" y="84" fill="#a8a6a0" font-size="10" font-family="system-ui" letter-spacing="0.8">PEDIDOS RECENTES</text>
  <text x="700" y="84" text-anchor="end" fill="#6b6965" font-size="10" font-family="system-ui" letter-spacing="0.5">Admin — Painel de Pedidos</text>

  <!-- Stats row -->
  <rect x="360" y="94" width="104" height="52" rx="10" fill="#111010" stroke="#1e1d1b" stroke-width="1"/>
  <text x="412" y="116" text-anchor="middle" fill="#f59e0b" font-size="20" font-weight="800" font-family="system-ui">12</text>
  <text x="412" y="132" text-anchor="middle" fill="#6b6965" font-size="9" font-family="system-ui">pendentes</text>

  <rect x="474" y="94" width="104" height="52" rx="10" fill="#111010" stroke="#1e1d1b" stroke-width="1"/>
  <text x="526" y="116" text-anchor="middle" fill="#22c55e" font-size="20" font-weight="800" font-family="system-ui">38</text>
  <text x="526" y="132" text-anchor="middle" fill="#6b6965" font-size="9" font-family="system-ui">confirmados</text>

  <rect x="588" y="94" width="148" height="52" rx="10" fill="#111010" stroke="#1e1d1b" stroke-width="1"/>
  <text x="662" y="116" text-anchor="middle" fill="#e5e5e0" font-size="20" font-weight="800" font-family="system-ui">R$ 94.200</text>
  <text x="662" y="132" text-anchor="middle" fill="#6b6965" font-size="9" font-family="system-ui">faturamento mês</text>

  <!-- Column headers -->
  <text x="360" y="170" fill="#6b6965" font-size="9" font-family="system-ui" letter-spacing="0.6">CLIENTE</text>
  <text x="530" y="170" fill="#6b6965" font-size="9" font-family="system-ui" letter-spacing="0.6">EQUIPAMENTO</text>
  <text x="660" y="170" fill="#6b6965" font-size="9" font-family="system-ui" letter-spacing="0.6">VALOR</text>
  <text x="730" y="170" fill="#6b6965" font-size="9" font-family="system-ui" letter-spacing="0.6">STATUS</text>
  <rect x="360" y="175" width="418" height="1" fill="#1e1d1b"/>

  <!-- Order row 1 -->
  <rect x="358" y="182" width="422" height="44" rx="8" fill="#141312" stroke="#1e1d1b" stroke-width="1"/>
  <circle cx="380" cy="204" r="12" fill="#1a2e1a"/>
  <text x="380" y="209" text-anchor="middle" fill="#25d366" font-size="11" font-weight="700" font-family="system-ui">C</text>
  <text x="400" y="200" fill="#e5e5e0" font-size="12" font-weight="500" font-family="system-ui">Carlos Mendes</text>
  <text x="400" y="215" fill="#6b6965" font-size="10" font-family="system-ui">(48) 99812-3344</text>
  <text x="530" y="200" fill="#a8a6a0" font-size="11" font-family="system-ui">Compactador de Solo</text>
  <text x="530" y="215" fill="#6b6965" font-size="10" font-family="system-ui">10 dias · início 12/05</text>
  <text x="660" y="207" fill="#e5e5e0" font-size="12" font-weight="600" font-family="system-ui">R$ 1.800</text>
  <rect x="728" y="194" width="46" height="20" rx="6" fill="rgba(245,158,11,0.15)" stroke="rgba(245,158,11,0.3)" stroke-width="1"/>
  <text x="751" y="208" text-anchor="middle" fill="#f59e0b" font-size="9" font-weight="600" font-family="system-ui">pendente</text>

  <!-- Order row 2 -->
  <rect x="358" y="232" width="422" height="44" rx="8" fill="#111010" stroke="#1e1d1b" stroke-width="1"/>
  <circle cx="380" cy="254" r="12" fill="#1a1917"/>
  <text x="380" y="259" text-anchor="middle" fill="#a8a6a0" font-size="11" font-weight="700" font-family="system-ui">A</text>
  <text x="400" y="250" fill="#e5e5e0" font-size="12" font-weight="500" font-family="system-ui">Ana Lima</text>
  <text x="400" y="265" fill="#6b6965" font-size="10" font-family="system-ui">(48) 98754-2211</text>
  <text x="530" y="250" fill="#a8a6a0" font-size="11" font-family="system-ui">Gerador 10KVA</text>
  <text x="530" y="265" fill="#6b6965" font-size="10" font-family="system-ui">7 dias · início 09/05</text>
  <text x="660" y="257" fill="#e5e5e0" font-size="12" font-weight="600" font-family="system-ui">R$ 950</text>
  <rect x="728" y="244" width="50" height="20" rx="6" fill="rgba(34,197,94,0.12)" stroke="rgba(34,197,94,0.3)" stroke-width="1"/>
  <text x="753" y="258" text-anchor="middle" fill="#22c55e" font-size="9" font-weight="600" font-family="system-ui">confirmado</text>

  <!-- Order row 3 -->
  <rect x="358" y="282" width="422" height="44" rx="8" fill="#111010" stroke="#1e1d1b" stroke-width="1"/>
  <circle cx="380" cy="304" r="12" fill="#1a1917"/>
  <text x="380" y="309" text-anchor="middle" fill="#a8a6a0" font-size="11" font-weight="700" font-family="system-ui">R</text>
  <text x="400" y="300" fill="#e5e5e0" font-size="12" font-weight="500" font-family="system-ui">Rafael Souza</text>
  <text x="400" y="315" fill="#6b6965" font-size="10" font-family="system-ui">(48) 99001-8872</text>
  <text x="530" y="300" fill="#a8a6a0" font-size="11" font-family="system-ui">Betoneira 400L</text>
  <text x="530" y="315" fill="#6b6965" font-size="10" font-family="system-ui">30 dias · início 01/05</text>
  <text x="660" y="307" fill="#e5e5e0" font-size="12" font-weight="600" font-family="system-ui">R$ 1.600</text>
  <rect x="728" y="294" width="50" height="20" rx="6" fill="rgba(34,197,94,0.12)" stroke="rgba(34,197,94,0.3)" stroke-width="1"/>
  <text x="753" y="308" text-anchor="middle" fill="#22c55e" font-size="9" font-weight="600" font-family="system-ui">confirmado</text>

  <!-- Order row 4 -->
  <rect x="358" y="332" width="422" height="44" rx="8" fill="#111010" stroke="#1e1d1b" stroke-width="1"/>
  <circle cx="380" cy="354" r="12" fill="#1a1917"/>
  <text x="380" y="359" text-anchor="middle" fill="#a8a6a0" font-size="11" font-weight="700" font-family="system-ui">M</text>
  <text x="400" y="350" fill="#e5e5e0" font-size="12" font-weight="500" font-family="system-ui">Marcos Teixeira</text>
  <text x="400" y="365" fill="#6b6965" font-size="10" font-family="system-ui">(48) 99654-0033</text>
  <text x="530" y="350" fill="#a8a6a0" font-size="11" font-family="system-ui">Rompedor Elétrico</text>
  <text x="530" y="365" fill="#6b6965" font-size="10" font-family="system-ui">3 dias · início 10/05</text>
  <text x="660" y="357" fill="#e5e5e0" font-size="12" font-weight="600" font-family="system-ui">R$ 480</text>
  <rect x="728" y="344" width="46" height="20" rx="6" fill="rgba(245,158,11,0.15)" stroke="rgba(245,158,11,0.3)" stroke-width="1"/>
  <text x="751" y="358" text-anchor="middle" fill="#f59e0b" font-size="9" font-weight="600" font-family="system-ui">pendente</text>

  <!-- Divider + footer label -->
  <rect x="360" y="390" width="418" height="1" fill="#1e1d1b"/>

  <!-- Tech badges at bottom -->
  <text x="360" y="416" fill="#6b6965" font-size="10" font-family="system-ui" letter-spacing="0.5">STACK</text>

  <rect x="360" y="424" width="70" height="22" rx="6" fill="#1a1917" stroke="#2a2826" stroke-width="1"/>
  <text x="395" y="439" text-anchor="middle" fill="#a8a6a0" font-size="10" font-family="system-ui">FastAPI</text>

  <rect x="438" y="424" width="46" height="22" rx="6" fill="#1a1917" stroke="#2a2826" stroke-width="1"/>
  <text x="461" y="439" text-anchor="middle" fill="#a8a6a0" font-size="10" font-family="system-ui">Groq</text>

  <rect x="492" y="424" width="90" height="22" rx="6" fill="#1a2e1a" stroke="#1e4a1e" stroke-width="1"/>
  <text x="537" y="439" text-anchor="middle" fill="#25d366" font-size="10" font-family="system-ui">Evolution API</text>

  <rect x="590" y="424" width="64" height="22" rx="6" fill="#1a1917" stroke="#2a2826" stroke-width="1"/>
  <text x="622" y="439" text-anchor="middle" fill="#a8a6a0" font-size="10" font-family="system-ui">Pydantic</text>

  <rect x="662" y="424" width="54" height="22" rx="6" fill="#1a1917" stroke="#2a2826" stroke-width="1"/>
  <text x="689" y="439" text-anchor="middle" fill="#a8a6a0" font-size="10" font-family="system-ui">Uvicorn</text>

  <!-- Groq model label -->
  <text x="360" y="472" fill="#6b6965" font-size="10" font-family="system-ui">LLM</text>
  <rect x="388" y="458" width="160" height="22" rx="6" fill="#111010" stroke="#1e1d1b" stroke-width="1"/>
  <text x="468" y="473" text-anchor="middle" fill="#a8a6a0" font-size="10" font-family="system-ui">llama-3.3-70b-versatile</text>
  <text x="558" y="472" fill="#6b6965" font-size="10" font-family="system-ui">· tool calling · PT-BR</text>
</svg>
